# xmcd CD database file
#
# Track frame offsets:
#	150
#	4823
#	22715
#	39749
#	56093
#	77637
#	79846
#	95191
#	114997
#	116114
#	135123
#	152219
#	156105
#	171421
#	189554
#
# Disc length: 2748 seconds
#
# Revision: 4
# Processed by: cddbd v1.5PL3 Copyright (c) Steve Scherf et al.
# Submitted via: CDex 1.50beta9
#
DISCID=ba0aba0f
DTITLE=Rednex - ...farm out!
DYEAR=2000
DGENRE=
TTITLE0=Intro - Fresh pigs and more
TTITLE1=The Spirit of the Hawk F.A.F. Radio Mix
TTITLE2=The way I mate
TTITLE3=The Devil went down to Georgia
TTITLE4=Hold me for a while
TTITLE5=Boring...
TTITLE6=Where you gonna go
TTITLE7=Maggie Moonshine - Extended Version
TTITLE8=Animal in the rain
TTITLE9=Ranger Jack
TTITLE10=Get the Truck loaded
TTITLE11=Message from our Sponsor
TTITLE12=Is he alive
TTITLE13=McKenzie Brothers II (continued...)
TTITLE14=Bottleneck Bob 2000
EXTD=YEAR: 2000
EXTT0=
EXTT1=
EXTT2=
EXTT3=
EXTT4=
EXTT5=
EXTT6=
EXTT7=
EXTT8=
EXTT9=
EXTT10=
EXTT11=
EXTT12=
EXTT13=
EXTT14=
PLAYORDER=
